<?xml version="1.0" encoding="UTF-8" standalone="no"?>
<!DOCTYPE svg PUBLIC "-//W3C//DTD SVG 1.1//EN" "http://www.w3.org/Graphics/SVG/1.1/DTD/svg11.dtd">
<svg width="100%" height="100%" viewBox="0 0 2550 3300" version="1.1" xmlns="http://www.w3.org/2000/svg" xmlns:xlink="http://www.w3.org/1999/xlink" xml:space="preserve" xmlns:serif="http://www.serif.com/" style="fill-rule:evenodd;clip-rule:evenodd;stroke-linejoin:round;stroke-miterlimit:2;">
    <g transform="matrix(0.606991,0,0,0.420939,-243.606,1184.16)">
        <text x="607.428px" y="1302.62px" style="font-family:'FerriteCoreDX-Black', 'Ferrite Core DX';font-weight:900;font-size:643.488px;fill:white;">(</text>
        <text x="874.476px" y="1302.62px" style="font-family:'FerriteCoreDX-Black', 'Ferrite Core DX';font-weight:900;font-size:643.488px;fill:white;">_</text>
        <text x="1411.79px" y="1302.62px" style="font-family:'FerriteCoreDX-Black', 'Ferrite Core DX';font-weight:900;font-size:643.488px;fill:rgb(212,242,210);">e</text>
        <text x="1968.41px" y="1302.62px" style="font-family:'FerriteCoreDX-Black', 'Ferrite Core DX';font-weight:900;font-size:643.488px;fill:rgb(212,242,210);">x</text>
        <text x="2525.02px" y="1302.62px" style="font-family:'FerriteCoreDX-Black', 'Ferrite Core DX';font-weight:900;font-size:643.488px;fill:rgb(212,242,210);">e<tspan x="3081.64px " y="1302.62px ">f</tspan></text>
        <text x="3638.26px" y="1302.62px" style="font-family:'FerriteCoreDX-Black', 'Ferrite Core DX';font-weight:900;font-size:643.488px;fill:white;">_</text>
        <text x="4136.96px" y="1302.62px" style="font-family:'FerriteCoreDX-Black', 'Ferrite Core DX';font-weight:900;font-size:643.488px;fill:white;">)</text>
    </g>
    <g id="baby_hellbender" transform="matrix(2.16732,-0.0810652,0.0810652,2.16732,2124.2,1641.15)">
        <g id="Layer1">
            <g id="baby_hellbender1" serif:id="baby_hellbender" transform="matrix(1,0,0,1,-80,-45.5)">
                <g id="layer101">
                    <path d="M3.6,87.4C1.1,85 1.7,82.1 6.2,74C12.6,62.3 22.1,53.5 35.1,47.1L45.7,41.9L46.6,31.3C47.2,24.8 48,20.5 48.7,20.3C49.3,20.1 50,20.7 50.3,21.7C50.7,23.4 50.8,23.4 50.9,21.8C51,19.2 53,19.6 53,22.1C53,24.2 53,24.2 55.1,21.9L57.1,19.5L56.6,22.9C56,26.3 56,26.3 58,24.5C59.9,22.7 60,22.8 60,24.8C60,26 59.4,27 58.8,27C57.9,27 58,27.3 59,28C60.2,28.8 60.1,29.2 58.2,31.1C56.9,32.2 56.1,33.4 56.3,33.6C56.8,34.1 63.5,30.5 66,28.4C66.8,27.8 69.1,26.7 71,26.1C72.9,25.6 77.9,23.9 82,22.5C88.5,20.2 101.9,17.1 105.7,17C107.6,17 110,11.6 110,7.5C110,5 110.4,4 111.6,4C112.4,4 112.8,4.5 112.5,5C112.2,5.6 112.3,6 112.8,6C113.4,6 114.1,5.3 114.4,4.4C114.7,3.6 115.4,3.1 115.9,3.5C116.5,3.8 116.6,4.8 116.3,5.6C115.8,7 116,7 117.8,5.9C120.2,4.4 122,5.4 120.2,7.2C118.4,9 118.8,9.9 121,9.3C123.9,8.5 123.4,10 119.8,13.1C118,14.6 116.9,16.2 117.3,16.6C117.7,17.1 121.1,16.4 124.8,15.2C130.4,13.3 133.1,13 141.4,13.3C150.8,13.7 151.6,13.9 154.9,16.7L158.5,19.7L156.8,23.3C155.1,26.9 153,28.3 139,35.5C134.7,37.7 133.6,39.9 136,41.7C137.3,42.7 137.2,43 135.1,43.8C133.1,44.5 133,44.8 134.3,45.3C135.3,45.7 135.7,46.6 135.4,47.4C135.1,48.2 134.2,48.6 133.4,48.3C132.4,47.9 132.2,48.3 132.6,49.4C133.3,51.3 132.3,51.4 129.1,49.6C127.6,48.8 125.8,48.5 124.6,49C114.8,52.6 113,52.5 113,48.3C113,46.3 112.6,45.9 111.3,46.5C105.4,48.9 96.8,51.4 84.1,54.5C76.2,56.4 69.5,58.2 69.1,58.5C68.8,58.9 69.4,59.8 70.5,60.6C71.9,61.7 73.7,61.9 76.9,61.5C80.9,60.9 81.3,61 80.1,62.4C79,63.8 79,64 80.4,64C82.4,64 82.5,65.9 80.5,66.6C79.4,67.1 79.2,67.6 80,68.5C81.2,70 79.7,71.5 78,70.5C77.5,70.2 77.3,70.5 77.6,71.3C78.3,73.1 73.6,73 70.3,71.2C69.1,70.5 66.9,70 65.3,70C63.5,70 61.2,68.9 59.2,67C57.4,65.4 55.3,64 54.7,64C54,64 51.3,65.8 48.5,68C34.9,78.8 31.4,81.3 26.2,84C16.6,88.8 6.5,90.4 3.6,87.4ZM128.5,40C129.3,38.7 127,38.7 125,40C123.8,40.8 123.9,41 125.7,41C126.9,41 128.2,40.6 128.5,40Z" style="fill:rgb(251,229,255);fill-rule:nonzero;"/>
                </g>
            </g>
            <g id="baby_hellbender2" serif:id="baby_hellbender">
            </g>
        </g>
    </g>
</svg>
