<?xml version="1.0" encoding="UTF-8" standalone="no"?>
<!DOCTYPE svg PUBLIC "-//W3C//DTD SVG 1.1//EN" "http://www.w3.org/Graphics/SVG/1.1/DTD/svg11.dtd">
<svg width="100%" height="100%" viewBox="0 0 450 300" version="1.1" xmlns="http://www.w3.org/2000/svg" xmlns:xlink="http://www.w3.org/1999/xlink" xml:space="preserve" xmlns:serif="http://www.serif.com/" style="fill-rule:evenodd;clip-rule:evenodd;stroke-linejoin:round;stroke-miterlimit:2;">
    <g transform="matrix(1.21481,0,0,2.01809,-53.1507,-171.55)">
        <g id="baby_hellbender">
            <g id="Layer1">
                <g id="baby_hellbender1" serif:id="baby_hellbender">
                    <g id="layer101">
                        <path d="M339.051,174.684C338.157,174.064 338.326,173.278 339.777,171.056C341.837,167.848 345.006,165.388 349.415,163.537L353.01,162.033L353.184,159.176C353.307,157.423 353.528,156.259 353.768,156.198C353.972,156.139 354.222,156.293 354.339,156.558C354.499,157.011 354.533,157.01 354.547,156.579C354.548,155.88 355.244,155.967 355.277,156.639C355.304,157.203 355.304,157.203 356,156.564L356.66,155.899L356.531,156.818C356.367,157.737 356.367,157.737 357.035,157.234C357.669,156.731 357.704,156.757 357.73,157.294C357.746,157.617 357.551,157.891 357.344,157.897C357.033,157.906 357.071,157.986 357.426,158.164C357.851,158.367 357.822,158.475 357.19,159.005C356.755,159.314 356.494,159.644 356.565,159.696C356.745,159.825 359.013,158.791 359.85,158.201C360.119,158.032 360.899,157.713 361.548,157.533C362.198,157.379 363.904,156.872 365.302,156.455C367.518,155.771 372.108,154.804 373.42,154.739C374.077,154.719 374.836,153.244 374.783,152.142C374.751,151.471 374.876,151.198 375.291,151.186C375.567,151.178 375.712,151.308 375.615,151.445C375.519,151.61 375.558,151.716 375.731,151.711C375.939,151.705 376.171,151.51 376.263,151.265C376.357,151.047 376.592,150.906 376.77,151.008C376.981,151.083 377.029,151.35 376.935,151.568C376.781,151.95 376.85,151.948 377.458,151.634C378.267,151.207 378.902,151.457 378.304,151.959C377.705,152.461 377.855,152.699 378.607,152.516C379.599,152.271 379.446,152.68 378.242,153.549C377.639,153.97 377.28,154.411 377.423,154.515C377.568,154.645 378.734,154.423 379.997,154.063C381.907,153.496 382.836,153.388 385.708,153.385C388.961,153.398 389.24,153.444 390.416,154.163L391.699,154.933L391.158,155.918C390.617,156.903 389.91,157.3 385.165,159.375C383.708,160.01 383.356,160.612 384.209,161.072C384.671,161.327 384.64,161.409 383.925,161.645C383.243,161.853 383.212,161.935 383.668,162.056C384.019,162.154 384.169,162.392 384.075,162.61C383.982,162.828 383.676,162.944 383.396,162.872C383.045,162.774 382.981,162.884 383.134,163.175C383.4,163.679 383.056,163.716 381.927,163.264C381.398,163.064 380.772,163.002 380.364,163.148C377.025,164.214 376.401,164.205 376.347,163.077C376.321,162.539 376.178,162.436 375.736,162.61C373.729,163.314 370.79,164.072 366.441,165.033C363.736,165.623 361.444,166.174 361.31,166.259C361.212,166.369 361.431,166.605 361.821,166.809C362.319,167.091 362.943,167.126 364.044,166.987C365.418,166.785 365.558,166.808 365.161,167.196C364.799,167.584 364.802,167.637 365.286,167.623C365.977,167.603 366.036,168.113 365.354,168.321C364.98,168.466 364.918,168.603 365.206,168.837C365.64,169.228 365.141,169.646 364.54,169.394C364.364,169.319 364.299,169.401 364.413,169.613C364.678,170.09 363.052,170.11 361.889,169.66C361.465,169.484 360.699,169.371 360.146,169.388C359.524,169.406 358.715,169.133 357.999,168.643C357.357,168.231 356.613,167.876 356.406,167.882C356.164,167.889 355.254,168.4 354.315,169.019C349.755,172.058 348.578,172.765 346.816,173.543C343.561,174.929 340.092,175.461 339.051,174.684ZM381.595,160.69C381.855,160.333 381.06,160.356 380.386,160.725C379.982,160.953 380.019,161.005 380.641,160.987C381.056,160.975 381.5,160.855 381.595,160.69Z" style="fill:rgb(94,110,219);fill-rule:nonzero;"/>
                    </g>
                </g>
            </g>
        </g>
        <g>
            <path d="M46.197,178.112L46.197,149.564L66.435,144.089L72.35,144.089L72.35,148.959L55.35,153.493L55.35,173.947L72.35,178.548L72.35,183.385L67.182,183.385L46.197,178.112Z" style="fill-rule:nonzero;"/>
            <rect x="72.039" y="178.548" width="52.93" height="4.87"/>
            <path d="M124.036,173.981L124.036,157.188L176.966,157.188L176.966,167.935L133.065,167.935L133.065,169.111L176.966,169.111L176.966,173.981L124.036,173.981ZM133.065,163.233L167.937,163.233L167.937,162.058L133.065,162.058L133.065,163.233Z" style="fill:rgb(122,21,21);fill-rule:nonzero;"/>
            <path d="M177.9,173.981L177.9,169.95L194.091,165.517L177.9,161.117L177.9,157.188L183.691,157.188L204.365,162.796L225.039,157.188L230.831,157.188L230.831,161.117L214.64,165.517L230.831,169.95L230.831,173.981L225.039,173.981L204.365,168.204L183.691,173.981L177.9,173.981Z" style="fill:rgb(122,21,21);fill-rule:nonzero;"/>
            <g>
                <path d="M231.764,173.981L231.764,157.188L284.694,157.188L284.694,167.935L240.793,167.935L240.793,169.111L284.694,169.111L284.694,173.981L231.764,173.981ZM240.793,163.233L275.665,163.233L275.665,162.058L240.793,162.058L240.793,163.233Z" style="fill:rgb(122,21,21);fill-rule:nonzero;"/>
                <path d="M285.629,162.058L285.629,157.188L307.61,157.188L307.61,151.31L338.559,151.31L338.559,156.18L316.64,156.18L316.64,157.188L338.559,157.188L338.559,162.058L316.64,162.058L316.64,173.981L307.61,173.981L307.61,162.058L285.629,162.058Z" style="fill:rgb(122,21,21);fill-rule:nonzero;"/>
            </g>
            <rect x="339.493" y="178.548" width="52.93" height="4.87"/>
            <path d="M412.848,178.112L391.925,183.385L386.694,183.385L386.694,178.548L403.694,173.947L403.694,153.493L386.694,148.959L386.694,144.089L392.672,144.089L412.848,149.564L412.848,178.112Z" style="fill-rule:nonzero;"/>
        </g>
    </g>
</svg>
