<?xml version="1.0" encoding="UTF-8" standalone="no"?>
<!DOCTYPE svg PUBLIC "-//W3C//DTD SVG 1.1//EN" "http://www.w3.org/Graphics/SVG/1.1/DTD/svg11.dtd">
<svg width="100%" height="100%" viewBox="0 0 100 100" version="1.1" xmlns="http://www.w3.org/2000/svg" xmlns:xlink="http://www.w3.org/1999/xlink" xml:space="preserve" xmlns:serif="http://www.serif.com/" style="fill-rule:evenodd;clip-rule:evenodd;stroke-linejoin:round;stroke-miterlimit:2;">
    <g transform="matrix(-1.37919,0,0,1.1343,114.56,-8.15265)">
        <g transform="matrix(3.29826,0,0,5.23093,-39.2012,-213.153)">
            <g transform="matrix(11.1399,0,0,11.1399,20.271,50.7417)">
                <rect x="0" y="-0.148" width="0.151" height="0.148" style="fill:rgb(255,0,0);fill-rule:nonzero;"/>
            </g>
            <g transform="matrix(11.1399,0,0,11.1399,21.6635,50.7417)">
                <rect x="0" y="-0.148" width="0.151" height="0.148" style="fill:rgb(0,255,0);fill-rule:nonzero;"/>
            </g>
            <g transform="matrix(11.1399,0,0,11.1399,23.056,50.7417)">
                <rect x="0" y="-0.148" width="0.151" height="0.148" style="fill:rgb(0,0,255);fill-rule:nonzero;"/>
            </g>
            <g transform="matrix(11.1399,0,0,11.1399,24.4485,50.7417)">
                <rect x="0" y="-0.148" width="0.151" height="0.148" style="fill:rgb(25,253,255);fill-rule:nonzero;"/>
            </g>
            <g transform="matrix(11.1399,0,0,11.1399,25.8409,50.7417)">
                <rect x="0" y="-0.148" width="0.151" height="0.148" style="fill:rgb(230,255,72);fill-rule:nonzero;"/>
            </g>
            <g transform="matrix(11.1399,0,0,11.1399,27.2334,50.7417)">
                <rect x="0" y="-0.148" width="0.151" height="0.148" style="fill:rgb(255,38,230);fill-rule:nonzero;"/>
            </g>
            <g transform="matrix(11.1399,0,0,11.1399,28.6259,50.7417)">
                <rect x="0" y="-0.148" width="0.151" height="0.148" style="fill:white;fill-rule:nonzero;"/>
            </g>
            <g transform="matrix(11.1399,0,0,11.1399,30.0184,50.7417)">
                <rect x="0" y="-0.148" width="0.151" height="0.148" style="fill-rule:nonzero;"/>
            </g>
        </g>
        <g transform="matrix(3.29826,0,0,5.23093,-39.2031,-204.722)">
            <g transform="matrix(17.6676,0,0,11.1399,20.271,50.7417)">
                <rect x="0" y="-0.148" width="0.151" height="0.148" style="fill:rgb(133,0,0);fill-rule:nonzero;"/>
            </g>
            <g transform="matrix(11.1399,0,0,11.1399,21.6635,50.7417)">
                <rect x="0" y="-0.148" width="0.151" height="0.148" style="fill:rgb(0,51,0);fill-rule:nonzero;"/>
            </g>
            <g transform="matrix(11.1399,0,0,11.1399,23.056,50.7417)">
                <rect x="0" y="-0.148" width="0.151" height="0.148" style="fill:rgb(0,0,148);fill-rule:nonzero;"/>
            </g>
            <g transform="matrix(11.1399,0,0,11.1399,24.4485,50.7417)">
                <rect x="0" y="-0.148" width="0.151" height="0.148" style="fill:rgb(0,92,144);fill-rule:nonzero;"/>
            </g>
            <g transform="matrix(11.1399,0,0,11.1399,25.8409,50.7417)">
                <rect x="0" y="-0.148" width="0.151" height="0.148" style="fill:rgb(236,188,0);fill-rule:nonzero;"/>
            </g>
            <g transform="matrix(11.1399,0,0,11.1399,27.2334,50.7417)">
                <rect x="0" y="-0.148" width="0.151" height="0.148" style="fill:rgb(159,38,230);fill-rule:nonzero;"/>
            </g>
            <g transform="matrix(11.1399,0,0,11.1399,28.6259,50.7417)">
                <rect x="0" y="-0.148" width="0.151" height="0.148" style="fill:rgb(211,211,211);fill-rule:nonzero;"/>
            </g>
            <g transform="matrix(11.1399,0,0,11.1399,30.0184,50.7417)">
                <rect x="0" y="-0.148" width="0.151" height="0.148" style="fill:rgb(169,165,169);fill-rule:nonzero;"/>
            </g>
        </g>
    </g>
</svg>
